<svg width="125" height="125" viewBox="0 0 125 125" fill="none" xmlns="http://www.w3.org/2000/svg">
<rect width="125" height="125" fill="#262521"/>
<path d="M2.25 89V85.5781C6.375 84.4844 8.4375 83.5312 8.4375 82.7188V56.7031C8.4375 55.0469 8.34375 53.8438 8.15625 53.0938C7.96875 52.3125 7.4375 51.7656 6.5625 51.4531C5.71875 51.1406 4.28125 50.875 2.25 50.6562V47.375C5.5 47 8.21875 46.5469 10.4062 46.0156C12.5938 45.4844 14.7969 44.8125 17.0156 44L18.9844 45.9688L19.5 51.7812C23 48.6875 26.0156 46.625 28.5469 45.5938C31.1094 44.5312 33.5156 44 35.7656 44C38.7344 44 41.0469 44.6875 42.7031 46.0625C44.3594 47.4375 45.3594 49.125 45.7031 51.125L45.8438 51.7812C49.3438 48.7188 52.375 46.6562 54.9375 45.5938C57.5312 44.5312 59.9688 44 62.25 44C65.2188 44 67.8125 44.9062 70.0312 46.7188C72.25 48.5312 73.3594 51.625 73.3594 56V82.7188C73.3594 83.125 73.8438 83.5469 74.8125 83.9844C75.7812 84.4219 77.5 84.9531 79.9688 85.5781V89H56.6719V85.5781C58.9219 84.9844 60.3906 84.4688 61.0781 84.0312C61.7656 83.5625 62.1094 83.125 62.1094 82.7188V60.7344C62.1094 58.1719 61.9375 56.2812 61.5938 55.0625C61.25 53.8125 60.7031 53 59.9531 52.625C59.2344 52.25 58.3125 52.0625 57.1875 52.0625C55.8438 52.0625 54.2344 52.5469 52.3594 53.5156C50.5156 54.4844 48.5781 55.9531 46.5469 57.9219V82.7188C46.5469 83.125 46.9062 83.5469 47.625 83.9844C48.375 84.4219 49.9844 84.9531 52.4531 85.5781V89H29.8125V85.5781C32.0625 84.9844 33.5312 84.4688 34.2188 84.0312C34.9375 83.5625 35.2969 83.125 35.2969 82.7188V60.7344C35.2969 58.1719 35.1562 56.2812 34.875 55.0625C34.5938 53.8125 34.1094 53 33.4219 52.625C32.7656 52.25 31.8594 52.0625 30.7031 52.0625C29.2969 52.0625 27.6875 52.5312 25.875 53.4688C24.0625 54.4062 22 55.8906 19.6875 57.9219V82.7188C19.6875 83.8125 21.6406 84.7656 25.5469 85.5781V89H2.25ZM103.5 90.4062C100.125 90.4062 96.9531 89.5312 93.9844 87.7812C91.0156 86 88.6094 83.4531 86.7656 80.1406C84.9531 76.7969 84.0469 72.8125 84.0469 68.1875C84.0469 63.6875 85.125 59.6094 87.2812 55.9531C89.4375 52.2969 92.4219 49.3906 96.2344 47.2344C100.047 45.0781 104.422 44 109.359 44C110.734 44 112.312 44.1562 114.094 44.4688C115.875 44.7812 117.547 45.2188 119.109 45.7812C120.672 46.3125 121.797 46.9531 122.484 47.7031C122.547 48.0781 122.453 48.8438 122.203 50C121.953 51.125 121.609 52.375 121.172 53.75C120.766 55.125 120.328 56.3906 119.859 57.5469C119.422 58.7031 119.062 59.5 118.781 59.9375L115.641 59.4688C114.609 56.4062 113.344 54.0469 111.844 52.3906C110.344 50.7031 108.344 49.8594 105.844 49.8594C103.094 49.8594 100.656 51.1562 98.5312 53.75C96.4062 56.3438 95.3281 60.6719 95.2969 66.7344C95.2656 71.7031 96.4531 75.5781 98.8594 78.3594C101.266 81.1406 104.172 82.5312 107.578 82.5312C108.766 82.5312 109.906 82.4219 111 82.2031C112.125 81.9844 113.406 81.4844 114.844 80.7031C116.312 79.9219 118.141 78.7188 120.328 77.0938L122.859 80.0938C120.141 83.1562 117.688 85.4219 115.5 86.8906C113.312 88.3594 111.25 89.3125 109.312 89.75C107.406 90.1875 105.469 90.4062 103.5 90.4062Z" fill="#FFF4E6"/>
</svg>
